<?xml version="1.0" encoding="UTF-8" standalone="no"?>
<svg
   xmlns:dc="http://purl.org/dc/elements/1.1/"
   xmlns:cc="http://creativecommons.org/ns#"
   xmlns:rdf="http://www.w3.org/1999/02/22-rdf-syntax-ns#"
   xmlns:svg="http://www.w3.org/2000/svg"
   xmlns="http://www.w3.org/2000/svg"
   xmlns:sodipodi="http://sodipodi.sourceforge.net/DTD/sodipodi-0.dtd"
   xmlns:inkscape="http://www.inkscape.org/namespaces/inkscape"
   version="1.1"
   x="0px"
   y="0px"
   viewBox="0 0 86.646889 94.98703"
   style="fill:#ffffff"
   xml:space="preserve"
   id="svg6"
   sodipodi:docname="arrow.svg"
   width="86.646889"
   height="94.98703"
   inkscape:version="0.92.3 (2405546, 2018-03-11)"
   inkscape:export-filename="C:\xampp\htdocs\hydrometeo\arrow.png"
   inkscape:export-xdpi="47.64164"
   inkscape:export-ydpi="47.64164"><metadata
     id="metadata12"><rdf:RDF><cc:Work
         rdf:about=""><dc:format>image/svg+xml</dc:format><dc:type
           rdf:resource="http://purl.org/dc/dcmitype/StillImage" /><dc:title>Artboard 30</dc:title></cc:Work></rdf:RDF></metadata><defs
     id="defs10" /><sodipodi:namedview
     pagecolor="#929292"
     bordercolor="#666666"
     borderopacity="1"
     objecttolerance="10"
     gridtolerance="10"
     guidetolerance="10"
     inkscape:pageopacity="0"
     inkscape:pageshadow="2"
     inkscape:window-width="1920"
     inkscape:window-height="1001"
     id="namedview8"
     showgrid="false"
     fit-margin-top="0"
     fit-margin-left="0"
     fit-margin-right="0"
     fit-margin-bottom="0"
     inkscape:zoom="2.36"
     inkscape:cx="-49.719613"
     inkscape:cy="47.897065"
     inkscape:window-x="-9"
     inkscape:window-y="-9"
     inkscape:window-maximized="1"
     inkscape:current-layer="svg6" /><title
     id="title2">Artboard 30</title><path
     d="m 85.925119,47.75387 c 0.13944,-0.143377 0.27888,-0.286755 0.41831,-0.430133 v 0 c 0.0678,-0.213096 0.20719,-0.356474 0.27494,-0.56957 v 0 c -0.002,-0.141408 0.0678,-0.213097 -0.004,-0.282816 v 0 c -0.002,-0.141407 -0.002,-0.141407 -0.004,-0.282815 l -0.002,-0.141408 -0.002,-0.141407 c -0.002,-0.141408 -0.0737,-0.211127 -0.004,-0.282815 v 0 c -0.0737,-0.211127 -0.14732,-0.422253 -0.22098,-0.63338 v 0 c -0.14338,-0.139437 -0.28675,-0.278875 -0.43013,-0.418312 v 0 L 85.666709,44.433746 2.9481811,0.25621059 c -0.997734,-0.5518402 -2.19477404,-0.1815757 -2.74661404,0.81615791 -0.205216,0.4978818 -0.269025,0.9937935 -0.119737,1.557454 L 12.232042,47.366188 1.6873131,92.489449 c -0.131557,0.709008 0.0197,1.414076 0.521523,1.902108 l 0.215066,0.209156 c 0.64323,0.486062 1.491675,0.474241 2.194773,0.181576 L 85.646249,48.040626 c 0.0697,-0.07169 0.13943,-0.143378 0.27887,-0.286756 z M 76.825779,44.344762 15.87909,45.193852 5.1500671,6.0243729 Z M 6.5873291,88.885306 15.936221,49.294673 76.952629,48.373895 Z"
     id="path4"
     inkscape:connector-curvature="0" /></svg>