<svg fill="#FFFFFF" xmlns="http://www.w3.org/2000/svg" xmlns:xlink="http://www.w3.org/1999/xlink" version="1.1" x="0px" y="0px" viewBox="0 0 100 100" enable-background="new 0 0 100 100" xml:space="preserve"><symbol viewBox="-27.299 -39.024 54.598 78.047"><path fill="none" d="M11.157,34.02c-1.275-1.85-3.408-3.026-5.733-3.026c-2.13,0-4.118,0.985-5.424,2.607   c-1.306-1.622-3.294-2.607-5.423-2.607c-2.325,0-4.457,1.176-5.734,3.026c-1.275-1.85-3.408-3.026-5.733-3.026   c-1.913,0-3.648,0.776-4.908,2.029v-66.474c1.26,1.253,2.995,2.029,4.908,2.029c2.325,0,4.458-1.176,5.733-3.026   c1.277,1.85,3.409,3.026,5.734,3.026c2.129,0,4.117-0.986,5.423-2.607c1.306,1.622,3.294,2.607,5.424,2.607   c2.325,0,4.458-1.176,5.733-3.026c1.277,1.85,3.409,3.026,5.734,3.026c1.913,0,3.647-0.776,4.907-2.028v66.473   c-1.26-1.253-2.994-2.028-4.907-2.028C14.567,30.995,12.435,32.17,11.157,34.02z"></path><path fill="#FFFFFF" stroke="#FFFFFF" stroke-width="3" stroke-miterlimit="10" d="M-20.463-37.524   c0.391,1.615,1.839,2.822,3.573,2.822c1.733,0,3.181-1.207,3.572-2.822h4.323c0.391,1.615,1.839,2.822,3.573,2.822   s3.182-1.207,3.573-2.822h3.701c0.391,1.615,1.839,2.822,3.573,2.822s3.182-1.207,3.573-2.822h4.322   c0.391,1.615,1.839,2.822,3.573,2.822s3.182-1.207,3.573-2.822h5.335v75.047h-5.266c-0.219-1.825-1.759-3.25-3.641-3.25   s-3.423,1.425-3.641,3.25H9.065c-0.219-1.825-1.759-3.25-3.641-3.25s-3.423,1.425-3.641,3.25h-3.564   c-0.219-1.825-1.759-3.25-3.641-3.25s-3.423,1.425-3.641,3.25h-4.186c-0.219-1.825-1.758-3.25-3.641-3.25   c-1.883,0-3.423,1.425-3.641,3.25h-5.267v-75.047H-20.463z"></path></symbol><symbol viewBox="-30.282 -48.056 60.563 94.113"><path fill="#FFFFFF" stroke="#FFFFFF" stroke-width="6" stroke-miterlimit="10" d="M16.006,43.056   c-3.233-4.883-8.77-8.108-15.065-8.108s-11.832,3.225-15.065,8.108h-10.584v-88.113h10.584c3.233,4.883,8.77,8.108,15.065,8.108   s11.832-3.224,15.065-8.108H26.59v88.113H16.006z"></path><line fill="none" stroke="#FFFFFF" stroke-width="5" stroke-linecap="round" stroke-linejoin="round" stroke-miterlimit="10" stroke-dasharray="7,8" x1="27.781" y1="-20.755" x2="-27.782" y2="-20.755"></line></symbol><symbol viewBox="-24.712 -42.834 54.356 85.667"><path fill="#FFFFFF" stroke="#FFFFFF" stroke-width="5" stroke-miterlimit="10" d="M17.181,40.333h-4.475   c-0.466-2.355-2.539-4.131-5.031-4.131c-2.491,0-4.565,1.776-5.03,4.131h-4.883c-0.466-2.355-2.539-4.131-5.031-4.131   c-2.491,0-4.565,1.776-5.03,4.131h-4.883c-0.466-2.355-2.539-4.131-5.03-4.131v-72.023c2.622,0,4.76-1.974,5.069-4.512h4.806   c0.309,2.539,2.447,4.512,5.069,4.512c2.622,0,4.76-1.974,5.069-4.512h4.806c0.309,2.539,2.447,4.512,5.069,4.512   c2.622,0,4.76-1.974,5.069-4.512h4.398c0.309,2.539,2.447,4.512,5.069,4.512v72.023C19.72,36.202,17.647,37.978,17.181,40.333z"></path><line fill="none" stroke="#FFFFFF" stroke-width="4" stroke-linecap="round" stroke-linejoin="round" stroke-miterlimit="10" stroke-dasharray="7,6" x1="-22.644" y1="-17.395" x2="27.644" y2="-17.395"></line></symbol><symbol viewBox="-23.971 -42.094 47.944 84.188"><g><path fill="#FFFFFF" stroke="#FFFFFF" stroke-width="3.521" stroke-miterlimit="10" d="M17.182,40.333h-4.475    c-0.466-2.355-2.539-4.131-5.031-4.131c-2.491,0-4.565,1.776-5.03,4.131h-4.883c-0.466-2.355-2.539-4.131-5.031-4.131    c-2.491,0-4.565,1.776-5.03,4.131h-4.883c-0.466-2.355-2.539-4.131-5.03-4.131v-72.023c2.622,0,4.76-1.974,5.069-4.512h4.806    c0.309,2.539,2.447,4.512,5.069,4.512c2.622,0,4.76-1.974,5.069-4.512h4.806c0.309,2.539,2.447,4.512,5.069,4.512    c2.622,0,4.76-1.974,5.069-4.512h4.398c0.309,2.539,2.447,4.512,5.069,4.512v72.023C19.721,36.202,17.648,37.978,17.182,40.333z"></path></g><polygon fill="#FFFFFF" stroke="#FFFFFF" stroke-width="3.8113" stroke-miterlimit="10" points="5.14,17.02 11.952,13.853    8.431,7.217 7.524,-0.241 0.124,1.057 -7.248,-0.385 -8.301,7.053 -11.951,13.62 -5.201,16.919 -0.084,22.42  "></polygon></symbol><symbol id="a" viewBox="-21.087 -31.266 42.17 72.87"><path fill="#FFFFFF" stroke="#FFFFFF" stroke-width="5" stroke-miterlimit="10" d="M6.373,39.104h5.21c0-3.87,3.13-7,7-7v-53.87   c-3.87,0-7-3.14-7-7h-5.21"></path><path fill="#FFFFFF" stroke="#FFFFFF" stroke-width="5" stroke-miterlimit="10" d="M-6.377-28.766h-5.21c0,3.86-3.13,7-7,7v53.87   c3.87,0,7,3.13,7,7h5.21"></path><line fill="none" stroke="#FFFFFF" stroke-width="5" stroke-miterlimit="10" x1="2.373" y1="39.104" x2="-2.377" y2="39.104"></line><line fill="none" stroke="#FFFFFF" stroke-width="5" stroke-miterlimit="10" x1="2.373" y1="-28.766" x2="-2.377" y2="-28.766"></line><g><path stroke="#FFFFFF" stroke-width="0.9" stroke-miterlimit="10" d="M-9.901-10.118c0-0.994-0.806-1.8-1.8-1.8    s-1.8,0.806-1.8,1.8s0.806,1.8,1.8,1.8S-9.901-9.124-9.901-10.118z"></path><path stroke="#FFFFFF" stroke-width="0.9" stroke-miterlimit="10" d="M-2.101-10.118c0-0.994-0.806-1.8-1.8-1.8    s-1.8,0.806-1.8,1.8s0.806,1.8,1.8,1.8S-2.101-9.124-2.101-10.118z"></path><path stroke="#FFFFFF" stroke-width="0.9" stroke-miterlimit="10" d="M5.699-10.118c0-0.994-0.806-1.8-1.8-1.8s-1.8,0.806-1.8,1.8    s0.806,1.8,1.8,1.8S5.699-9.124,5.699-10.118z"></path><path stroke="#FFFFFF" stroke-width="0.9" stroke-miterlimit="10" d="M13.499-10.118c0-0.994-0.806-1.8-1.8-1.8    s-1.8,0.806-1.8,1.8s0.806,1.8,1.8,1.8S13.499-9.124,13.499-10.118z"></path></g></symbol><symbol viewBox="-21.086 -31.266 42.17 72.87"><use xlink:href="#a" width="42.17" height="72.87" x="-21.087" y="-31.266" transform="matrix(1 0 0 1 6.996482e-004 -2.671033e-004)" overflow="visible"></use><line fill="none" stroke="#FFFFFF" stroke-width="4" stroke-miterlimit="10" x1="9.224" y1="13.75" x2="-9.223" y2="13.75"></line></symbol><g display="none"><path display="inline" fill="#FFFFFF" d="M948.792,714.743H-289.006c-2.084,0-3.789-1.705-3.789-3.789V-476.211   c0-2.084,1.705-3.789,3.789-3.789H948.792c2.084,0,3.789,1.705,3.789,3.789V710.954   C952.582,713.038,950.877,714.743,948.792,714.743z"></path></g><g><g><path d="M50,79.777c20.823,0,37.763-16.94,37.763-37.764S70.823,4.25,50,4.25S12.236,21.19,12.236,42.013S29.177,79.777,50,79.777    z M50,13.206c15.885,0,28.808,12.923,28.808,28.808S65.885,70.822,50,70.822c-15.885,0-28.809-12.924-28.809-28.809    S34.115,13.206,50,13.206z"></path><path d="M50,62.067c11.057,0,20.053-8.996,20.053-20.053S61.057,21.961,50,21.961s-20.053,8.995-20.053,20.053    S38.943,62.067,50,62.067z M39.854,29.708c2.036-1.534,4.929-1.127,6.464,0.907c1.534,2.035,1.128,4.929-0.907,6.464    c-1.226,0.924-1.951,2.544-1.989,4.445c-0.044,2.195,0.852,4.37,2.282,5.541c1.972,1.615,2.261,4.523,0.646,6.494    c-0.912,1.114-2.237,1.691-3.573,1.691c-1.028,0-2.063-0.342-2.921-1.044c-3.647-2.988-5.764-7.798-5.662-12.868    C34.29,36.587,36.353,32.348,39.854,29.708z"></path><path d="M16.755,95.75h66.489c3.12,0,4.263-2.412,4.538-3.151c0.275-0.74,0.991-3.31-1.368-5.353l-8.929-7.733    c-7.707,5.664-17.21,9.019-27.486,9.019s-19.779-3.355-27.486-9.019l-8.929,7.733c-2.359,2.043-1.644,4.614-1.368,5.353    C12.493,93.338,13.635,95.75,16.755,95.75z"></path></g></g></svg>