<?xml version="1.0" encoding="UTF-8" standalone="no"?>
<!-- Created with Inkscape (http://www.inkscape.org/) -->

<svg
   xmlns:dc="http://purl.org/dc/elements/1.1/"
   xmlns:cc="http://creativecommons.org/ns#"
   xmlns:rdf="http://www.w3.org/1999/02/22-rdf-syntax-ns#"
   xmlns:svg="http://www.w3.org/2000/svg"
   xmlns="http://www.w3.org/2000/svg"
   xmlns:sodipodi="http://sodipodi.sourceforge.net/DTD/sodipodi-0.dtd"
   xmlns:inkscape="http://www.inkscape.org/namespaces/inkscape"
   width="159.2616mm"
   height="159.25952mm"
   viewBox="0 0 159.2616 159.25952"
   version="1.1"
   id="svg5100"
   inkscape:export-filename="C:\Users\Myriam\Documents\com.Timakan\timakan\icons\level.png"
   inkscape:export-xdpi="5.741497"
   inkscape:export-ydpi="5.741497"
   inkscape:version="0.92.3 (2405546, 2018-03-11)"
   sodipodi:docname="level.svg">
  <defs
     id="defs5094" />
  <sodipodi:namedview
     id="base"
     pagecolor="#ffffff"
     bordercolor="#666666"
     borderopacity="1.0"
     inkscape:pageopacity="0.0"
     inkscape:pageshadow="2"
     inkscape:zoom="0.7"
     inkscape:cx="188.56664"
     inkscape:cy="305.16031"
     inkscape:document-units="mm"
     inkscape:current-layer="layer1"
     showgrid="false"
     fit-margin-top="0"
     fit-margin-left="0"
     fit-margin-right="0"
     fit-margin-bottom="0"
     inkscape:window-width="1920"
     inkscape:window-height="1001"
     inkscape:window-x="-9"
     inkscape:window-y="-9"
     inkscape:window-maximized="1">
    <inkscape:grid
       type="xygrid"
       id="grid5649"
       originx="-29.986385"
       originy="-68.728735" />
  </sodipodi:namedview>
  <metadata
     id="metadata5097">
    <rdf:RDF>
      <cc:Work
         rdf:about="">
        <dc:format>image/svg+xml</dc:format>
        <dc:type
           rdf:resource="http://purl.org/dc/dcmitype/StillImage" />
        <dc:title></dc:title>
      </cc:Work>
    </rdf:RDF>
  </metadata>
  <g
     inkscape:label="Layer 1"
     inkscape:groupmode="layer"
     id="layer1"
     transform="translate(-29.986384,-69.011734)">
    <path
       style="color:#000000;font-style:normal;font-variant:normal;font-weight:normal;font-stretch:normal;font-size:medium;line-height:normal;font-family:sans-serif;font-variant-ligatures:normal;font-variant-position:normal;font-variant-caps:normal;font-variant-numeric:normal;font-variant-alternates:normal;font-feature-settings:normal;text-indent:0;text-align:start;text-decoration:none;text-decoration-line:none;text-decoration-style:solid;text-decoration-color:#000000;letter-spacing:normal;word-spacing:normal;text-transform:none;writing-mode:lr-tb;direction:ltr;text-orientation:mixed;dominant-baseline:auto;baseline-shift:baseline;text-anchor:start;white-space:normal;shape-padding:0;clip-rule:nonzero;display:inline;overflow:visible;visibility:visible;opacity:1;isolation:auto;mix-blend-mode:normal;color-interpolation:sRGB;color-interpolation-filters:linearRGB;solid-color:#000000;solid-opacity:1;vector-effect:none;fill:#101937;fill-opacity:1;fill-rule:evenodd;stroke:none;stroke-width:35;stroke-linecap:round;stroke-linejoin:round;stroke-miterlimit:4;stroke-dasharray:none;stroke-dashoffset:0;stroke-opacity:1;color-rendering:auto;image-rendering:auto;shape-rendering:auto;text-rendering:auto;enable-background:accumulate"
       d="m 363.46484,75.521484 c -166.01086,0 -300.966793,134.948146 -300.966793,300.958986 0,166.01087 134.955933,300.9668 300.966793,300.9668 166.01084,0 300.9668,-134.95593 300.9668,-300.9668 0,-166.01084 -134.95596,-300.958986 -300.9668,-300.958986 z m -17.45312,35.580076 -0.14453,31.5293 a 17.501751,17.501751 0 1 0 34.99609,0.16211 l 0.14453,-31.68555 c 27.38266,1.77608 53.62162,7.67539 78.10742,17.0918 l -15.95507,31.36523 a 17.501751,17.501751 0 1 0 31.19531,15.86328 l 16.55078,-32.52929 c 18.89462,10.31359 36.39186,22.85302 52.14453,37.26758 l -25.59961,27.8164 a 17.501751,17.501751 0 1 0 25.74805,23.70313 l 24.10547,-26.19141 c 13.94623,16.61668 25.89893,34.96167 35.48242,54.68359 l -31.02734,13.25977 a 17.501751,17.501751 0 1 0 13.75195,32.18555 l 30.45117,-13.01172 c 6.97683,21.07205 11.38764,43.31872 12.87891,66.375 h -32.85547 a 17.501751,17.501751 0 1 0 0,34.99805 H 628.8418 C 619.85249,532.8898 504.67676,642.45117 363.46484,642.45117 222.2529,642.45117 107.0772,532.8898 98.087891,393.98438 h 31.208989 a 17.501751,17.501751 0 1 0 0,-34.99805 H 98.087891 C 99.587653,335.79865 104.03806,313.42866 111.08398,292.25 l 27.94141,11.94727 a 17.501751,17.501751 0 1 0 13.75977,-32.18555 l -28.47461,-12.17188 c 9.43735,-19.35093 21.15229,-37.37542 34.79883,-53.73437 l 22.23046,24.14844 a 17.501751,17.501751 0 1 0 25.75391,-23.70313 l -23.79297,-25.84766 c 15.54224,-14.30666 32.79805,-26.77732 51.42774,-37.08203 l 15.45312,30.38282 a 17.501751,17.501751 0 1 0 31.19727,-15.8711 l -14.95508,-29.40625 c 24.90733,-9.7398 51.65535,-15.82262 79.58789,-17.625 z"
       transform="matrix(0.26458333,0,0,0.26458333,13.450443,49.030008)"
       id="path1387"
       inkscape:connector-curvature="0" />
    <path
       style="opacity:1;fill:#564787;fill-opacity:1;fill-rule:evenodd;stroke:#564787;stroke-width:5.29166651;stroke-linecap:round;stroke-linejoin:round;stroke-miterlimit:4;stroke-dasharray:none;stroke-opacity:1"
       d="m 126.09051,151.73748 c -2.19459,8.96074 -10.94721,14.51693 -19.5495,12.41013 -8.602287,-2.10681 -13.796765,-11.07882 -11.602172,-20.03956 2.194592,-8.96072 19.671732,-24.82618 30.357832,-56.541643 -4.26555,32.704223 2.98842,55.210353 0.79384,64.171073 z"
       id="path1389"
       inkscape:connector-curvature="0"
       sodipodi:nodetypes="ssscs"
       inkscape:transform-center-x="-0.16634391"
       inkscape:transform-center-y="-21.832119" />
  </g>
</svg>
