<?xml version="1.0" encoding="UTF-8" standalone="no"?>
<svg
   xmlns:dc="http://purl.org/dc/elements/1.1/"
   xmlns:cc="http://creativecommons.org/ns#"
   xmlns:rdf="http://www.w3.org/1999/02/22-rdf-syntax-ns#"
   xmlns:svg="http://www.w3.org/2000/svg"
   xmlns="http://www.w3.org/2000/svg"
   xmlns:sodipodi="http://sodipodi.sourceforge.net/DTD/sodipodi-0.dtd"
   xmlns:inkscape="http://www.inkscape.org/namespaces/inkscape"
   xml:space="preserve"
   version="1.1"
   style="clip-rule:evenodd;fill:#ffffff;fill-rule:evenodd;image-rendering:optimizeQuality;shape-rendering:geometricPrecision;text-rendering:geometricPrecision"
   viewBox="0 0 10797.36 10797.36"
   x="0px"
   y="0px"
   id="svg924"
   sodipodi:docname="meteo.svg"
   width="10797.36"
   height="10797.36"
   inkscape:export-filename="C:\Users\Myriam\Documents\Timakan\timakan\icons\meteo.png"
   inkscape:export-xdpi="0.86243302"
   inkscape:export-ydpi="0.86243302"
   inkscape:version="0.92.3 (2405546, 2018-03-11)"><metadata
     id="metadata928"><rdf:RDF><cc:Work
         rdf:about=""><dc:format>image/svg+xml</dc:format><dc:type
           rdf:resource="http://purl.org/dc/dcmitype/StillImage" /><dc:title /></cc:Work></rdf:RDF></metadata><sodipodi:namedview
     pagecolor="#b2b2b2"
     bordercolor="#666666"
     borderopacity="1"
     objecttolerance="10"
     gridtolerance="10"
     guidetolerance="10"
     inkscape:pageopacity="0"
     inkscape:pageshadow="2"
     inkscape:window-width="1920"
     inkscape:window-height="1001"
     id="namedview926"
     showgrid="false"
     fit-margin-top="0"
     fit-margin-left="0"
     fit-margin-right="0"
     fit-margin-bottom="0"
     inkscape:zoom="0.021454545"
     inkscape:cx="-2970.8117"
     inkscape:cy="6109.6971"
     inkscape:window-x="-9"
     inkscape:window-y="-9"
     inkscape:window-maximized="1"
     inkscape:current-layer="svg924" /><defs
     id="defs904"><style
       type="text/css"
       id="style902">
   
    .fil0 {fill:#FFFFFF;fill-rule:nonzero}
   
  </style></defs><g
     id="g922"
     transform="translate(796.13763,-346.23536)"
     style="fill:#ffffff;fill-opacity:1"><path
       class="fil0"
       d="m 6628,3469 c -755,-476 -1725,-37 -1905,819 403,164 755,441 1007,794 458,-162 900,-179 1359,-3 268,-590 87,-1264 -461,-1610 z"
       id="path906"
       inkscape:connector-curvature="0"
       style="fill:#ffffff;fill-rule:nonzero;fill-opacity:1" /><path
       class="fil0"
       d="m 3962,4339 c -802,-47 -1557,366 -1950,1065 216,61 414,171 583,327 45,42 47,112 6,157 -41,45 -111,47 -156,6 -794,-735 -2066,-129 -2026,932 34,889 988,1434 1763,1023 44,-26 101,-20 138,19 748,788 1970,870 2814,202 46,-38 110,-38 153,4 1016,973 2714,266 2792,-1137 79,-1428 -1590,-2307 -2720,-1386 -47,39 -117,32 -156,-16 -38,-47 -31,-117 16,-156 96,-78 198,-145 305,-203 -366,-490 -953,-801 -1562,-837 z"
       id="path908"
       inkscape:connector-curvature="0"
       style="fill:#ffffff;fill-rule:nonzero;fill-opacity:1" /><path
       class="fil0"
       d="m 6256,2583 -28,264 c -14,126 -210,110 -196,-21 l 28,-264 c 14,-128 209,-107 196,21 z"
       id="path910"
       inkscape:connector-curvature="0"
       style="fill:#ffffff;fill-rule:nonzero;fill-opacity:1" /><path
       class="fil0"
       d="m 5201,2697 108,242 c 51,117 -127,200 -180,80 l -108,-242 c -52,-118 128,-198 180,-80 z"
       id="path912"
       inkscape:connector-curvature="0"
       style="fill:#ffffff;fill-rule:nonzero;fill-opacity:1" /><path
       class="fil0"
       d="m 4345,3323 214,156 c 103,75 -10,237 -116,159 l -214,-156 c -105,-76 11,-235 116,-159 z"
       id="path914"
       inkscape:connector-curvature="0"
       style="fill:#ffffff;fill-rule:nonzero;fill-opacity:1" /><path
       class="fil0"
       d="m 7966,4923 -264,-28 c -126,-14 -110,-210 21,-196 l 263,28 c 129,14 108,209 -20,196 z"
       id="path916"
       inkscape:connector-curvature="0"
       style="fill:#ffffff;fill-rule:nonzero;fill-opacity:1" /><path
       class="fil0"
       d="m 7852,3868 -242,108 c -117,51 -201,-127 -80,-180 l 242,-108 c 118,-52 198,128 80,180 z"
       id="path918"
       inkscape:connector-curvature="0"
       style="fill:#ffffff;fill-rule:nonzero;fill-opacity:1" /><path
       class="fil0"
       d="m 7226,3012 -156,214 c -75,103 -237,-10 -159,-116 l 156,-214 c 76,-105 235,11 159,116 z"
       id="path920"
       inkscape:connector-curvature="0"
       style="fill:#ffffff;fill-rule:nonzero;fill-opacity:1" /></g><circle
     style="opacity:1;fill:none;fill-opacity:1;fill-rule:evenodd;stroke:#ffffff;stroke-width:283.46456909;stroke-linecap:round;stroke-linejoin:bevel;stroke-miterlimit:4;stroke-dasharray:none;stroke-opacity:1;paint-order:stroke fill markers"
     id="path1476"
     cx="5398.6802"
     cy="5398.6802"
     r="5256.9478" /></svg>