<?xml version="1.0" encoding="UTF-8" standalone="no"?>
<svg
   xmlns:dc="http://purl.org/dc/elements/1.1/"
   xmlns:cc="http://creativecommons.org/ns#"
   xmlns:rdf="http://www.w3.org/1999/02/22-rdf-syntax-ns#"
   xmlns:svg="http://www.w3.org/2000/svg"
   xmlns="http://www.w3.org/2000/svg"
   xmlns:sodipodi="http://sodipodi.sourceforge.net/DTD/sodipodi-0.dtd"
   xmlns:inkscape="http://www.inkscape.org/namespaces/inkscape"
   version="1.1"
   x="0px"
   y="0px"
   viewBox="0 0 82.157997 86.362999"
   enable-background="new 0 0 100 100"
   xml:space="preserve"
   id="svg6"
   sodipodi:docname="quake.svg"
   width="82.157997"
   height="86.362999"
   style="fill:#ffffff"
   inkscape:export-filename="C:\xampp\htdocs\hydrometeo\quake.png"
   inkscape:export-xdpi="54.919998"
   inkscape:export-ydpi="54.919998"
   inkscape:version="0.92.3 (2405546, 2018-03-11)"><metadata
     id="metadata12"><rdf:RDF><cc:Work
         rdf:about=""><dc:format>image/svg+xml</dc:format><dc:type
           rdf:resource="http://purl.org/dc/dcmitype/StillImage" /><dc:title></dc:title></cc:Work></rdf:RDF></metadata><defs
     id="defs10" /><sodipodi:namedview
     pagecolor="#9c9c9c"
     bordercolor="#666666"
     borderopacity="1"
     objecttolerance="10"
     gridtolerance="10"
     guidetolerance="10"
     inkscape:pageopacity="0"
     inkscape:pageshadow="2"
     inkscape:window-width="1920"
     inkscape:window-height="1001"
     id="namedview8"
     showgrid="false"
     fit-margin-top="0"
     fit-margin-left="0"
     fit-margin-right="0"
     fit-margin-bottom="0"
     inkscape:zoom="2.36"
     inkscape:cx="41.079"
     inkscape:cy="44.126"
     inkscape:window-x="-9"
     inkscape:window-y="-9"
     inkscape:window-maximized="1"
     inkscape:current-layer="svg6" /><g
     id="g4"
     transform="translate(-8.921,-7.763)"><path
       d="m 46.873,94.125 c -1.171,0 -2.159,-0.871 -2.305,-2.033 L 38.593,44.629 31.934,58.715 c -0.383,0.812 -1.202,1.331 -2.1,1.331 H 11.245 c -1.284,0 -2.324,-1.041 -2.324,-2.324 0,-1.283 1.04,-2.324 2.324,-2.324 h 17.117 l 9.44,-19.969 c 0.44,-0.934 1.439,-1.467 2.467,-1.302 1.02,0.163 1.81,0.98 1.939,2.004 l 4.596,36.51 7.444,-62.827 c 0.138,-1.17 1.13,-2.051 2.307,-2.051 0.003,0 0.008,0 0.012,0 1.181,0.006 2.171,0.899 2.298,2.073 l 6.099,56.288 4.24,-9.542 c 0.374,-0.84 1.206,-1.38 2.124,-1.38 h 17.427 c 1.283,0 2.324,1.041 2.324,2.324 0,1.283 -1.041,2.324 -2.324,2.324 H 72.838 L 65.707,75.9 c -0.428,0.961 -1.46,1.502 -2.482,1.352 -1.038,-0.163 -1.838,-1.001 -1.951,-2.047 L 56.453,30.708 49.182,92.076 c -0.138,1.166 -1.125,2.045 -2.299,2.05 -0.005,-0.001 -0.007,-0.001 -0.01,-0.001 z"
       id="path2"
       inkscape:connector-curvature="0" /></g></svg>