<?xml version="1.0" encoding="UTF-8" standalone="no"?>
<svg
   xmlns:dc="http://purl.org/dc/elements/1.1/"
   xmlns:cc="http://creativecommons.org/ns#"
   xmlns:rdf="http://www.w3.org/1999/02/22-rdf-syntax-ns#"
   xmlns:svg="http://www.w3.org/2000/svg"
   xmlns="http://www.w3.org/2000/svg"
   xmlns:sodipodi="http://sodipodi.sourceforge.net/DTD/sodipodi-0.dtd"
   xmlns:inkscape="http://www.inkscape.org/namespaces/inkscape"
   data-name="Layer 1"
   viewBox="0 0 88.150002 93.701241"
   x="0px"
   y="0px"
   version="1.1"
   id="svg10"
   sodipodi:docname="station.svg"
   width="88.150002"
   height="93.701241"
   style="fill:#ffffff"
   inkscape:version="0.92.3 (2405546, 2018-03-11)"
   inkscape:export-filename="C:\xampp\htdocs\hydrometeo\station.png"
   inkscape:export-xdpi="53.363583"
   inkscape:export-ydpi="53.363583">
  <metadata
     id="metadata16">
    <rdf:RDF>
      <cc:Work
         rdf:about="">
        <dc:format>image/svg+xml</dc:format>
        <dc:type
           rdf:resource="http://purl.org/dc/dcmitype/StillImage" />
        <dc:title>03</dc:title>
      </cc:Work>
    </rdf:RDF>
  </metadata>
  <defs
     id="defs14" />
  <sodipodi:namedview
     pagecolor="#bbbbbb"
     bordercolor="#666666"
     borderopacity="1"
     objecttolerance="10"
     gridtolerance="10"
     guidetolerance="10"
     inkscape:pageopacity="0"
     inkscape:pageshadow="2"
     inkscape:window-width="1920"
     inkscape:window-height="1001"
     id="namedview12"
     showgrid="false"
     fit-margin-top="0"
     fit-margin-left="0"
     fit-margin-right="0"
     fit-margin-bottom="0"
     inkscape:zoom="2.36"
     inkscape:cx="-26.712712"
     inkscape:cy="46.9"
     inkscape:window-x="-9"
     inkscape:window-y="-9"
     inkscape:window-maximized="1"
     inkscape:current-layer="svg10" />
  <title
     id="title2">03</title>
  <g
     data-name="Group"
     id="g8"
     transform="translate(-5.95,-3.1987572)">
    <path
       data-name="Compound Path"
       d="m 86.9,54 a 5,5 0 0 0 -0.5,-6.4 l -1.7,-1.7 a 5,5 0 0 0 -6.4,-0.5 l -0.9,0.7 a 1,1 0 0 1 -1.1,0.1 H 76.1 A 38.1,38.1 0 0 0 66.9,29 L 43,3.8 A 2,2 0 0 0 41.5,3.2 v 0 A 2,2 0 0 0 40,3.8 L 16.3,29 v 0 C 2.5,43.7 2.5,67.6 16.3,82.3 a 34.9,34.9 0 0 0 25.4,11 34,34 0 0 0 14.3,-3.1 l 1.8,0.6 a 1,1 0 0 1 0.7,0.8 l 0.2,1.1 a 5,5 0 0 0 4.9,4.2 H 66 a 5,5 0 0 0 4.9,-4.2 l 0.2,-1.1 a 1,1 0 0 1 0.7,-0.8 24.1,24.1 0 0 0 4.5,-1.9 1,1 0 0 1 1.1,0.1 l 0.9,0.7 a 5,5 0 0 0 6.4,-0.5 l 1.7,-1.7 a 5,5 0 0 0 0.5,-6.4 l -0.7,-0.9 a 1,1 0 0 1 -0.1,-1.1 24.2,24.2 0 0 0 1.9,-4.6 1,1 0 0 1 0.8,-0.7 l 1.1,-0.2 a 5,5 0 0 0 4.2,-4.9 V 66.3 A 5,5 0 0 0 89.9,61.4 L 88.8,61.2 A 1,1 0 0 1 88,60.5 24.3,24.3 0 0 0 86.2,56 1,1 0 0 1 86.3,54.9 Z M 71.3,43.9 A 1,1 0 0 1 71.1,43.4 V 43 Z M 19.2,79.5 a 35.2,35.2 0 0 1 0,-47.7 v 0 L 41.6,8.1 64,31.8 a 33.7,33.7 0 0 1 5.5,7.9 5,5 0 0 0 -3.5,-1.5 h -2.4 a 5,5 0 0 0 -4.9,4.2 l -0.2,1.1 a 1,1 0 0 1 -0.7,0.8 24.2,24.2 0 0 0 -4.5,1.9 1,1 0 0 1 -1.1,0 L 51.3,45.5 A 5,5 0 0 0 44.9,46 l -1.7,1.7 a 5,5 0 0 0 -0.5,6.4 l 0.7,0.9 a 1,1 0 0 1 0.1,1.1 24.2,24.2 0 0 0 -1.9,4.5 1,1 0 0 1 -0.8,0.7 l -1.1,0.2 a 5,5 0 0 0 -4.2,4.9 v 2.4 a 5,5 0 0 0 4.2,4.9 l 1.1,0.2 a 1,1 0 0 1 0.8,0.7 24.3,24.3 0 0 0 1.7,4.4 1,1 0 0 1 -0.1,1.1 L 42.5,81 a 5,5 0 0 0 0.5,6.4 l 1.7,1.7 h 0.1 A 30.7,30.7 0 0 1 19.2,79.5 Z m 69,-14.4 1.1,0.2 a 1,1 0 0 1 0.8,1 v 2.4 a 1,1 0 0 1 -0.8,1 l -1.1,0.2 a 5,5 0 0 0 -3.9,3.5 20.3,20.3 0 0 1 -1.6,3.7 5,5 0 0 0 0.3,5.3 l 0.7,0.9 a 1,1 0 0 1 -0.1,1.3 l -1.7,1.7 a 1,1 0 0 1 -1.3,0.1 L 79.7,85.7 A 5,5 0 0 0 74.4,85.4 20.3,20.3 0 0 1 70.6,87 5,5 0 0 0 67.1,90.9 L 66.9,92 a 1,1 0 0 1 -1,0.8 H 63.6 A 1,1 0 0 1 62.6,92 L 62.4,90.9 A 5,5 0 0 0 58.9,87 20.3,20.3 0 0 1 55.2,85.4 5.1,5.1 0 0 0 52.8,84.8 5,5 0 0 0 49.9,85.7 L 49,86.4 A 1,1 0 0 1 47.7,86.3 L 46,84.6 a 1,1 0 0 1 -0.1,-1.3 l 0.7,-0.9 a 5,5 0 0 0 0.3,-5.3 20.3,20.3 0 0 1 -1.6,-3.7 5,5 0 0 0 -3.9,-3.5 l -1.1,-0.2 a 1,1 0 0 1 -0.8,-1 v -2.4 a 1,1 0 0 1 0.8,-1 l 1.1,-0.2 a 5,5 0 0 0 3.9,-3.5 20.3,20.3 0 0 1 1.6,-3.7 5,5 0 0 0 -0.3,-5.3 L 45.9,51.7 A 1,1 0 0 1 46,50.4 l 1.7,-1.7 A 1,1 0 0 1 49,48.6 l 0.9,0.7 a 5,5 0 0 0 5.3,0.3 20.3,20.3 0 0 1 3.7,-1.6 5,5 0 0 0 3.5,-3.9 L 62.6,43 a 1,1 0 0 1 1,-0.8 H 66 a 1,1 0 0 1 1,0.8 l 0.2,1.1 a 5,5 0 0 0 3.4,3.9 20.2,20.2 0 0 1 3.7,1.6 5,5 0 0 0 5.3,-0.3 l 0.9,-0.7 a 1,1 0 0 1 1.3,0.1 l 1.7,1.7 a 1,1 0 0 1 0.1,1.3 l -0.7,0.9 a 5,5 0 0 0 -0.3,5.3 20.3,20.3 0 0 1 1.6,3.7 5,5 0 0 0 4,3.5 z"
       id="path4"
       inkscape:connector-curvature="0" />
    <path
       data-name="Compound Path"
       d="M 64.8,54.3 A 13.2,13.2 0 1 0 78,67.5 13.2,13.2 0 0 0 64.8,54.3 Z m 0,22.4 a 9.2,9.2 0 1 1 9.2,-9.2 9.2,9.2 0 0 1 -9.2,9.2 z"
       id="path6"
       inkscape:connector-curvature="0" />
  </g>
</svg>
