<?xml version="1.0" encoding="UTF-8" standalone="no"?>
<svg
   xmlns:dc="http://purl.org/dc/elements/1.1/"
   xmlns:cc="http://creativecommons.org/ns#"
   xmlns:rdf="http://www.w3.org/1999/02/22-rdf-syntax-ns#"
   xmlns:svg="http://www.w3.org/2000/svg"
   xmlns="http://www.w3.org/2000/svg"
   xmlns:sodipodi="http://sodipodi.sourceforge.net/DTD/sodipodi-0.dtd"
   xmlns:inkscape="http://www.inkscape.org/namespaces/inkscape"
   viewBox="0 0 60 48"
   x="0px"
   y="0px"
   version="1.1"
   id="svg6"
   sodipodi:docname="tide.svg"
   width="60"
   height="48"
   style="fill:#ffffff"
   inkscape:export-filename="C:\Users\Myriam\Documents\Timakan\timakan\icons\tide.png"
   inkscape:export-xdpi="155.2"
   inkscape:export-ydpi="155.2"
   inkscape:version="0.92.3 (2405546, 2018-03-11)">
  <metadata
     id="metadata12">
    <rdf:RDF>
      <cc:Work
         rdf:about="">
        <dc:format>image/svg+xml</dc:format>
        <dc:type
           rdf:resource="http://purl.org/dc/dcmitype/StillImage" />
        <dc:title />
      </cc:Work>
    </rdf:RDF>
  </metadata>
  <defs
     id="defs10" />
  <sodipodi:namedview
     pagecolor="#bababa"
     bordercolor="#666666"
     borderopacity="1"
     objecttolerance="10"
     gridtolerance="10"
     guidetolerance="10"
     inkscape:pageopacity="0"
     inkscape:pageshadow="2"
     inkscape:window-width="1920"
     inkscape:window-height="1001"
     id="namedview8"
     showgrid="false"
     fit-margin-top="0"
     fit-margin-left="0"
     fit-margin-right="0"
     fit-margin-bottom="0"
     inkscape:zoom="3.6875"
     inkscape:cx="-15.288136"
     inkscape:cy="24"
     inkscape:window-x="-9"
     inkscape:window-y="-9"
     inkscape:window-maximized="1"
     inkscape:current-layer="svg6" />
  <path
     d="m 43,5 a 1,1 0 0 0 -1,1 v 5.586 L 39.707,9.293 a 1,1 0 0 0 -1.414,1.414 l 4,4 a 1,1 0 0 0 1.416,0 l 4,-4 A 1,1 0 0 0 46.295,9.293 L 44,11.586 V 6 A 1,1 0 0 0 43,5 Z"
     id="path2"
     inkscape:connector-curvature="0"
     style="fill:#ffffff;fill-opacity:1" />
  <path
     d="m 18.145,23.568 c 0.7,-1 1.133,-1.568 1.96,-1.568 0.827,0 1.259,0.567 1.956,1.57 0.751,1.082 1.686,2.43 3.6,2.43 1.914,0 2.848,-1.348 3.6,-2.43 0.7,-1 1.13,-1.57 1.955,-1.57 0.825,0 1.26,0.567 1.956,1.57 0.752,1.082 1.687,2.43 3.6,2.43 1.913,0 2.846,-1.348 3.6,-2.43 0.7,-1 1.13,-1.57 1.954,-1.57 0.824,0 1.261,0.567 1.958,1.57 0.752,1.083 1.688,2.43 3.6,2.43 1.912,0 2.849,-1.347 3.6,-2.429 0.7,-1 1.132,-1.571 1.96,-1.571 0.828,0 1.262,0.567 1.959,1.57 C 56.15,24.653 57.087,26 59,26 a 1,1 0 0 0 0,-2 C 58.173,24 57.738,23.433 57.041,22.43 56.289,21.347 55.353,20 53.441,20 c -1.912,0 -2.849,1.347 -3.6,2.43 -0.7,1 -1.132,1.57 -1.959,1.57 -0.827,0 -1.261,-0.567 -1.957,-1.57 -0.752,-1.082 -1.688,-2.43 -3.6,-2.43 -1.912,0 -2.845,1.347 -3.6,2.43 -0.7,1 -1.13,1.57 -1.955,1.57 -0.825,0 -1.261,-0.567 -1.957,-1.57 -0.752,-1.083 -1.688,-2.43 -3.6,-2.43 -1.912,0 -2.847,1.347 -3.6,2.43 -0.7,1 -1.131,1.57 -1.956,1.57 -0.825,0 -1.26,-0.567 -1.956,-1.57 C 22.95,21.347 22.015,20 20.101,20 c -1.914,0 -2.848,1.345 -3.6,2.425 -0.105,0.151 -0.209,0.3 -0.313,0.441 C 12.6,11.48 8.793,0 1,0 a 1,1 0 0 0 0,2 c 6.517,0 10.09,11.337 13.546,22.3 0.073,0.232 0.147,0.465 0.22,0.7 v 0 c 3.365,10.666 6.84,21.67 13.919,22.883 l 0.074,0.01 A 7.74,7.74 0 0 0 30,48 h 29 a 1,1 0 0 0 0,-2 H 30 a 5.618,5.618 0 0 1 -0.793,-0.065 c -0.09,-0.013 -0.18,-0.026 -0.27,-0.044 -0.173,-0.034 -0.344,-0.081 -0.514,-0.131 a 5.839,5.839 0 0 1 -0.651,-0.237 l -0.056,-0.025 a 9.89,9.89 0 0 1 -3.782,-3.423 l -0.073,-0.1 c -0.1,-0.144 -0.2,-0.294 -0.3,-0.444 -0.053,-0.081 -0.107,-0.161 -0.16,-0.243 -0.069,-0.107 -0.136,-0.218 -0.2,-0.328 -0.086,-0.139 -0.172,-0.278 -0.256,-0.421 -0.034,-0.057 -0.067,-0.116 -0.1,-0.173 -0.341,-0.59 -0.671,-1.217 -0.993,-1.874 -0.085,-0.174 -0.171,-0.347 -0.255,-0.526 -0.084,-0.179 -0.16,-0.34 -0.239,-0.514 -0.172,-0.377 -0.342,-0.761 -0.511,-1.159 -0.035,-0.081 -0.069,-0.164 -0.1,-0.247 q -0.606,-1.443 -1.2,-3.052 l -0.016,-0.041 c -0.189,-0.515 -0.378,-1.044 -0.566,-1.582 l -0.108,-0.308 q -0.249,-0.717 -0.5,-1.461 C 18.333,29.529 18.309,29.456 18.284,29.383 18.9,28.5 19.333,28 20.105,28 c 0.826,0 1.259,0.567 1.956,1.57 0.751,1.082 1.686,2.43 3.6,2.43 1.914,0 2.848,-1.348 3.6,-2.43 0.7,-1 1.13,-1.57 1.955,-1.57 0.825,0 1.26,0.567 1.956,1.57 0.752,1.082 1.687,2.43 3.6,2.43 1.913,0 2.846,-1.348 3.6,-2.43 0.7,-1 1.13,-1.57 1.954,-1.57 0.824,0 1.261,0.567 1.958,1.57 0.752,1.083 1.688,2.43 3.6,2.43 1.912,0 2.849,-1.347 3.6,-2.429 0.7,-1 1.132,-1.571 1.96,-1.571 0.828,0 1.262,0.567 1.959,1.57 C 56.15,30.653 57.087,32 59,32 a 1,1 0 0 0 0,-2 C 58.173,30 57.738,29.433 57.041,28.43 56.289,27.347 55.353,26 53.441,26 c -1.912,0 -2.849,1.347 -3.6,2.43 -0.7,1 -1.132,1.57 -1.959,1.57 -0.827,0 -1.261,-0.567 -1.957,-1.57 -0.752,-1.082 -1.688,-2.43 -3.6,-2.43 -1.912,0 -2.845,1.347 -3.6,2.43 -0.7,1 -1.13,1.57 -1.955,1.57 -0.825,0 -1.261,-0.567 -1.957,-1.57 -0.752,-1.083 -1.688,-2.43 -3.6,-2.43 -1.912,0 -2.847,1.347 -3.6,2.43 -0.7,1 -1.131,1.57 -1.956,1.57 -0.825,0 -1.26,-0.567 -1.956,-1.57 C 22.95,27.347 22.015,26 20.101,26 a 3.445,3.445 0 0 0 -2.565,1.12 q -0.325,-1.014 -0.648,-2.034 a 8.314,8.314 0 0 0 1.257,-1.518 z"
     id="path4"
     inkscape:connector-curvature="0"
     style="fill:#ffffff;fill-opacity:1" />
</svg>
