<?xml version="1.0" encoding="UTF-8" standalone="no"?>
<!-- Generator: Adobe Illustrator 22.1.0, SVG Export Plug-In . SVG Version: 6.00 Build 0)  -->

<svg
   xmlns:dc="http://purl.org/dc/elements/1.1/"
   xmlns:cc="http://creativecommons.org/ns#"
   xmlns:rdf="http://www.w3.org/1999/02/22-rdf-syntax-ns#"
   xmlns:svg="http://www.w3.org/2000/svg"
   xmlns="http://www.w3.org/2000/svg"
   xmlns:sodipodi="http://sodipodi.sourceforge.net/DTD/sodipodi-0.dtd"
   xmlns:inkscape="http://www.inkscape.org/namespaces/inkscape"
   version="1.1"
   id="Layer_1"
   x="0px"
   y="0px"
   viewBox="0 0 115.31651 72.900002"
   xml:space="preserve"
   sodipodi:docname="waves.svg"
   width="115.31651"
   height="72.900002"
   inkscape:export-filename="C:\Users\Myriam\Documents\Timakan\timakan\icons\waves.png"
   inkscape:export-xdpi="21.84"
   inkscape:export-ydpi="21.84"
   inkscape:version="0.92.3 (2405546, 2018-03-11)"><metadata
   id="metadata29"><rdf:RDF><cc:Work
       rdf:about=""><dc:format>image/svg+xml</dc:format><dc:type
         rdf:resource="http://purl.org/dc/dcmitype/StillImage" /><dc:title /></cc:Work></rdf:RDF></metadata><defs
   id="defs27" /><sodipodi:namedview
   pagecolor="#989898"
   bordercolor="#666666"
   borderopacity="1"
   objecttolerance="10"
   gridtolerance="10"
   guidetolerance="10"
   inkscape:pageopacity="0"
   inkscape:pageshadow="2"
   inkscape:window-width="1920"
   inkscape:window-height="1001"
   id="namedview25"
   showgrid="false"
   fit-margin-top="0"
   fit-margin-left="0"
   fit-margin-right="0"
   fit-margin-bottom="0"
   inkscape:zoom="1.2196382"
   inkscape:cx="-73.400852"
   inkscape:cy="39.75"
   inkscape:window-x="-9"
   inkscape:window-y="-9"
   inkscape:window-maximized="1"
   inkscape:current-layer="Layer_1" />
<style
   type="text/css"
   id="style2">
	.st0{fill:#FFFFFF;}
</style>
<g
   id="g22"
   transform="translate(-45.975,-63.6)">
	<g
   id="g8">
		<path
   class="st0"
   d="m 50.1,79.3 c 0.8,-0.9 18.7,-21 50.3,-4 8.9,4.8 17.2,6.6 24.6,6.6 20.5,0 34.1,-13.6 34.3,-13.8 0.6,-0.6 0.7,-1.7 0.1,-2.4 -0.5,-0.7 -1.5,-0.8 -2.1,-0.1 -0.2,0.2 -23.9,23.8 -55.6,6.7 -33.6,-18.2 -53.5,4.3 -53.7,4.6 -0.6,0.7 -0.6,1.8 0,2.4 0.6,0.7 1.5,0.7 2.1,0 z"
   id="path4"
   inkscape:connector-curvature="0"
   style="fill:#ffffff" />
		<path
   class="st0"
   d="m 125,83.4 c -8.5,0 -17,-2.3 -25.3,-6.7 -30.5,-16.5 -47.7,2.8 -48.4,3.6 -0.6,0.6 -1.4,1 -2.2,1 0,0 0,0 0,0 -0.8,0 -1.6,-0.4 -2.2,-1 -1.1,-1.2 -1.1,-3.2 0,-4.4 0.2,-0.2 20.9,-23.7 55.6,-5 30.5,16.5 53.6,-6.2 53.8,-6.4 0.6,-0.6 1.4,-0.9 2.2,-0.9 0.8,0.1 1.6,0.5 2.1,1.2 1,1.3 0.9,3.2 -0.2,4.4 -0.2,0.1 -14.2,14.2 -35.4,14.2 z M 76.1,67 c 7.1,0 15.5,1.8 25,7 7.8,4.2 15.9,6.4 23.9,6.4 19.8,0 33.1,-13.2 33.2,-13.3 0.1,-0.1 0.1,-0.2 0.1,-0.4 -1.8,1.7 -25.7,23.9 -57.3,6.8 C 68.7,56.1 49.3,77.6 49.1,77.8 49,77.9 49,78 49.1,78.2 50.2,77 59.6,67 76.1,67 Z"
   id="path6"
   inkscape:connector-curvature="0"
   style="fill:#ffffff" />
	</g>
	<g
   id="g14">
		<path
   class="st0"
   d="m 157.3,92.1 c -0.2,0.2 -23.9,23.8 -55.6,6.7 -33.6,-18.1 -53.5,4.4 -53.7,4.7 -0.6,0.7 -0.6,1.8 0,2.4 0.6,0.7 1.5,0.7 2.1,0 0.8,-0.9 18.7,-21 50.3,-4 8.9,4.8 17.2,6.6 24.6,6.6 20.5,0 34.1,-13.6 34.3,-13.8 0.6,-0.6 0.7,-1.7 0.1,-2.4 -0.5,-0.8 -1.5,-0.8 -2.1,-0.2 z"
   id="path10"
   inkscape:connector-curvature="0"
   style="fill:#ffffff" />
		<path
   class="st0"
   d="m 125,109.9 c -8.5,0 -17,-2.3 -25.3,-6.7 -30.5,-16.5 -47.7,2.8 -48.4,3.6 -0.6,0.6 -1.4,1 -2.2,1 0,0 0,0 0,0 -0.8,0 -1.6,-0.4 -2.2,-1 -1.1,-1.2 -1.1,-3.2 0,-4.4 0.2,-0.2 21,-23.6 55.6,-5 30.5,16.5 53.5,-6.1 53.8,-6.4 0.6,-0.6 1.4,-0.9 2.2,-0.9 0.8,0.1 1.6,0.5 2.1,1.2 1,1.3 0.9,3.2 -0.2,4.4 -0.2,0.2 -14.1,14.2 -35.4,14.2 z M 76.1,93.6 c 7.1,0 15.5,1.8 25,7 7.8,4.2 15.9,6.4 23.9,6.4 19.8,0 33.1,-13.2 33.2,-13.3 0.1,-0.1 0.1,-0.2 0.1,-0.4 -1.7,1.7 -25.7,23.9 -57.3,6.8 -13.5,-7.3 -26.3,-8.8 -38,-4.5 -8.9,3.3 -13.8,8.8 -13.8,8.8 -0.1,0.1 -0.1,0.2 0,0.4 1,-1.3 10.5,-11.2 26.9,-11.2 z m 81.2,-1.5 1.1,1.1 c 0,0 0,0 0,0 z"
   id="path12"
   inkscape:connector-curvature="0"
   style="fill:#ffffff" />
	</g>
	<g
   id="g20">
		<path
   class="st0"
   d="m 157.3,118.7 c -0.2,0.2 -23.9,23.8 -55.6,6.7 -33.6,-18.1 -53.5,4.4 -53.7,4.7 -0.6,0.7 -0.6,1.8 0,2.4 0.6,0.7 1.5,0.7 2.1,0 0.8,-0.9 18.7,-21 50.3,-4 8.9,4.8 17.2,6.6 24.6,6.6 20.5,0 34.1,-13.6 34.3,-13.8 0.6,-0.6 0.7,-1.7 0.1,-2.4 -0.5,-0.8 -1.5,-0.9 -2.1,-0.2 z"
   id="path16"
   inkscape:connector-curvature="0"
   style="fill:#ffffff" />
		<path
   class="st0"
   d="m 125,136.5 c -8.5,0 -17,-2.3 -25.3,-6.7 -30.5,-16.5 -47.7,2.8 -48.5,3.6 -0.6,0.6 -1.4,1 -2.2,1 0,0 0,0 0,0 -0.8,0 -1.6,-0.4 -2.2,-1 -1.1,-1.2 -1.1,-3.2 0,-4.4 0.2,-0.2 20.9,-23.7 55.6,-5 30.5,16.5 53.6,-6.1 53.8,-6.4 0.6,-0.6 1.4,-0.9 2.2,-0.9 0.8,0 1.6,0.5 2.1,1.2 1,1.3 0.9,3.2 -0.2,4.4 -0.1,0.1 -14,14.2 -35.3,14.2 z M 76.1,120.1 c 7.1,0 15.5,1.8 25,7 7.8,4.2 15.9,6.4 23.9,6.4 19.8,0 33.1,-13.2 33.2,-13.3 0.1,-0.1 0.1,-0.2 0.1,-0.4 -1.7,1.7 -25.7,23.9 -57.3,6.8 -32.3,-17.4 -51.7,4.1 -51.9,4.3 -0.1,0.1 -0.1,0.2 0,0.4 1.2,-1.3 10.6,-11.2 27,-11.2 z"
   id="path18"
   inkscape:connector-curvature="0"
   style="fill:#ffffff" />
	</g>
</g>
</svg>